<svg width="24" height="24" viewBox="0 0 24 24" fill="none" xmlns="http://www.w3.org/2000/svg">
<g clip-path="url(#clip0_129_984)">
<path fill-rule="evenodd" clip-rule="evenodd" d="M2.82717 3.84811C2.745 3.87216 2.63428 3.94711 2.58108 4.0147C2.48691 4.13442 2.48438 4.1888 2.48438 6.08962C2.48438 8.24564 2.47734 8.19309 2.78348 8.32102C2.97272 8.40009 3.15262 8.36348 3.28927 8.21808C3.3983 8.10206 3.39848 8.1 3.42188 6.45333L3.44531 4.80469L9.17578 4.79278L14.9062 4.78087V10.5936V16.4062H12.8211H10.7359L10.597 16.5352C10.3876 16.7294 10.3849 17.0015 10.5901 17.2067L10.7272 17.3438H13.8984H17.0697L17.2067 17.2067C17.3865 17.027 17.3966 16.7543 17.2308 16.5612C17.1203 16.4326 17.1046 16.4292 16.5159 16.4062L15.9141 16.3828L15.9021 11.707L15.8902 7.03125H17.8565H19.8229L21.4193 8.35392L23.0156 9.67659V12.5185C23.0156 14.0816 23.002 15.5826 22.9854 15.8541L22.9552 16.3477L22.6427 16.3701C22.2837 16.3958 22.1072 16.4898 22.0364 16.6929C21.9669 16.8921 22.0214 17.0928 22.1815 17.2275C22.3135 17.3386 22.3476 17.3438 22.9467 17.3438C23.333 17.3438 23.6209 17.3222 23.6966 17.2877C23.9451 17.1745 23.9531 17.1134 23.9538 15.3187C23.9543 14.4087 23.97 13.6884 23.989 13.7183C24.0432 13.8036 24.008 9.51745 23.9529 9.3203C23.911 9.17048 23.6737 8.95697 22.104 7.65623C21.1136 6.83555 20.2333 6.13889 20.1477 6.10809C20.0366 6.06816 19.4062 6.05142 17.9414 6.0495L15.8906 6.04688V5.13502C15.8906 4.16006 15.8691 4.04456 15.6608 3.903C15.5461 3.82509 15.1742 3.81984 9.25781 3.81239C5.49253 3.80766 2.9167 3.82195 2.82717 3.84811ZM17.0797 8.42681C16.8779 8.59031 16.875 8.62411 16.875 10.8477V12.9829L17.0117 13.136L17.1485 13.2891L19.25 13.3026C20.4059 13.31 21.4008 13.3038 21.461 13.2889C21.5212 13.274 21.6214 13.2069 21.6837 13.1397L21.7969 13.0176V11.4763V9.93502L21.5974 9.73706C21.4876 9.62817 21.0956 9.27009 20.7262 8.94141L20.0546 8.34375L18.6172 8.34478C17.326 8.34572 17.1695 8.35406 17.0797 8.42681ZM2.23945 8.8387C2.07506 8.92791 2.01562 9.04294 2.01562 9.27178C2.01562 9.49116 2.17261 9.67594 2.39714 9.72084C2.5875 9.75891 8.2875 9.75891 8.47786 9.72084C8.65777 9.68484 8.84039 9.50887 8.87447 9.33872C8.9078 9.17227 8.77556 8.90016 8.625 8.8253C8.53509 8.78058 7.79264 8.76727 5.4375 8.7682C2.81841 8.76919 2.34844 8.77955 2.23945 8.8387ZM17.8594 10.8047V12.3281H19.3594H20.8594V11.3504V10.3727L20.2534 9.82697L19.6475 9.28125H18.7534H17.8594V10.8047ZM1.26562 11.0501C1.03322 11.1673 0.948656 11.4276 1.06556 11.6661C1.11112 11.7591 1.19564 11.8583 1.25334 11.8865C1.37006 11.9436 7.23061 12.0234 7.49025 11.9715C7.66655 11.9362 7.85597 11.7611 7.88564 11.606C7.92028 11.4247 7.81687 11.1912 7.66406 11.1055C7.53792 11.0347 7.20966 11.0236 4.47656 10.997C1.62389 10.9693 1.41923 10.9726 1.26562 11.0501ZM0.296672 13.2864C0.109406 13.3687 0.046875 13.4849 0.046875 13.7505C0.046875 13.9274 0.0696094 13.9795 0.191109 14.0818L0.335297 14.2031H3.42853C5.61441 14.2031 6.55181 14.1877 6.62419 14.1508C6.91973 13.9996 6.98002 13.6485 6.75384 13.3953L6.61711 13.2422L3.53119 13.2316C0.977344 13.2229 0.419672 13.2323 0.296672 13.2864ZM2.82717 14.6343C2.745 14.6556 2.63428 14.7284 2.58108 14.796C2.48981 14.912 2.48438 14.979 2.48438 15.9871V17.0553L2.62861 17.1995L2.77284 17.3438H3.67969C4.58123 17.3438 4.58737 17.343 4.72734 17.2253C4.80478 17.1601 4.88166 17.0451 4.89825 16.9697C4.93538 16.8005 4.81842 16.535 4.67367 16.4601C4.61681 16.4307 4.31719 16.4012 4.00781 16.3947L3.44531 16.3828L3.42188 15.6247C3.39984 14.9118 3.39192 14.8597 3.28927 14.7505C3.16045 14.6136 3.03183 14.5813 2.82717 14.6343ZM7.07812 15.8853C6.09206 16.2041 5.48438 17.0142 5.48438 18.01C5.48438 19.1805 6.4748 20.1562 7.66289 20.1562C8.29636 20.1562 8.77739 19.9599 9.21792 19.5214C9.90487 18.8377 10.0408 17.8125 9.56738 16.8846C9.43664 16.6283 8.99259 16.1934 8.72147 16.0561C8.19694 15.7905 7.57209 15.7256 7.07812 15.8853ZM18.9749 15.8874C17.9565 16.213 17.2868 17.2443 17.4357 18.2578C17.5147 18.7965 17.7074 19.1705 18.1051 19.5579C18.5148 19.957 19.0169 20.1549 19.6216 20.1557C20.2304 20.1566 20.7342 19.9471 21.1584 19.5167C22.163 18.4978 21.9233 16.798 20.6719 16.0658C20.2162 15.7991 19.4897 15.7228 18.9749 15.8874ZM7.13531 16.9021C6.54356 17.1969 6.2992 17.8972 6.58045 18.4922C7.0215 19.4251 8.36302 19.4132 8.77908 18.4727C8.90166 18.1956 8.90161 17.7572 8.77898 17.481C8.67548 17.2477 8.36625 16.9461 8.12916 16.847C7.86656 16.7373 7.41591 16.7623 7.13531 16.9021ZM19.1016 16.8915C18.6835 17.0866 18.375 17.5601 18.375 18.0068C18.375 18.2654 18.557 18.6383 18.7892 18.8555C19.0485 19.098 19.279 19.1876 19.6406 19.1863C20.6174 19.1829 21.1623 18.0343 20.5642 17.2395C20.2388 16.807 19.6055 16.6564 19.1016 16.8915Z" fill="white"/>
</g>
<defs>
<clipPath id="clip0_129_984">
<rect width="24" height="24" fill="white"/>
</clipPath>
</defs>
</svg>
